<svg width="722" height="458" viewBox="0 0 722 458" fill="none" xmlns="http://www.w3.org/2000/svg">
<rect width="722" height="458" rx="25" fill="url(#paint0_linear_12_752)"/>
<path d="M231.184 206.119C236.456 192.885 237.057 185.414 231.184 171.94C230.561 170.51 231.184 169.319 231.899 169.081C232.614 168.842 233.719 169.081 234.401 170.51C241.319 185.025 240.898 193.165 234.758 207.682C234.043 209.112 232.706 209.293 231.899 208.755C230.955 208.126 230.739 207.236 231.184 206.119Z" fill="#FEFBFF"/>
<path d="M223.678 173.012C222.963 173.37 222.506 174.725 223.321 176.229C228.13 186.235 227.932 191.957 223.321 202.321C222.817 203.366 223.129 204.521 224.035 204.823C225.108 205.181 226.044 204.42 226.537 203.393C231.831 192.379 231.971 186.051 226.537 174.442C226.035 173.37 224.75 172.476 223.678 173.012Z" fill="#FEFBFF"/>
<path d="M216.53 177.659C215.457 178.016 215.267 179.203 215.815 180.518C218.661 187.358 219.11 191.193 215.815 198.032C215.172 199.224 214.961 200.488 216.172 200.891C217.383 201.295 218.256 200.658 218.674 199.819C222.897 191.444 221.951 186.749 218.674 178.374C218.394 177.659 217.602 177.301 216.53 177.659Z" fill="#FEFBFF"/>
<path d="M209.024 180.518C207.951 181.233 207.799 182.317 208.666 184.092C210.475 187.859 210.434 189.975 208.666 193.743C207.844 195.405 207.594 197.317 209.023 197.675C210.453 198.032 211.088 197.524 211.883 195.53C213.708 190.282 213.887 187.315 211.883 181.948C211.422 180.555 210.453 179.803 209.024 180.518Z" fill="#FEFBFF"/>
<path d="M234.656 363V345.48H238.064V363H234.656ZM223.16 363V345.48H226.568V363H223.16ZM225.944 355.728V352.728H235.28V355.728H225.944ZM244.827 363V345.48H248.235V363H244.827ZM258.463 363V348H261.871V363H258.463ZM253.399 348.48V345.48H266.935V348.48H253.399ZM268.851 363L274.827 345.48H280.395L286.539 363H283.035L277.827 347.808L279.051 348.336H276.051L277.299 347.808L272.259 363H268.851ZM273.027 358.344L274.107 355.464H281.211L282.267 358.344H273.027ZM291.541 363V345.48H294.949V363H291.541ZM294.469 363V360H302.029V363H294.469ZM315.111 363.456C313.527 363.456 312.151 363.176 310.983 362.616C309.831 362.056 308.871 361.328 308.103 360.432C307.351 359.52 306.783 358.544 306.399 357.504C306.031 356.448 305.847 355.432 305.847 354.456V353.928C305.847 352.856 306.039 351.792 306.423 350.736C306.807 349.664 307.383 348.696 308.151 347.832C308.935 346.968 309.903 346.28 311.055 345.768C312.207 345.24 313.559 344.976 315.111 344.976C316.647 344.976 317.991 345.24 319.143 345.768C320.295 346.28 321.255 346.968 322.023 347.832C322.807 348.696 323.391 349.664 323.775 350.736C324.159 351.792 324.351 352.856 324.351 353.928V354.456C324.351 355.432 324.159 356.448 323.775 357.504C323.407 358.544 322.839 359.52 322.071 360.432C321.319 361.328 320.359 362.056 319.191 362.616C318.039 363.176 316.679 363.456 315.111 363.456ZM315.111 360.288C316.007 360.288 316.807 360.128 317.511 359.808C318.231 359.488 318.839 359.048 319.335 358.488C319.847 357.912 320.231 357.264 320.487 356.544C320.759 355.808 320.895 355.032 320.895 354.216C320.895 353.336 320.759 352.528 320.487 351.792C320.231 351.056 319.847 350.416 319.335 349.872C318.839 349.328 318.231 348.904 317.511 348.6C316.791 348.296 315.991 348.144 315.111 348.144C314.215 348.144 313.407 348.296 312.687 348.6C311.967 348.904 311.351 349.328 310.839 349.872C310.343 350.416 309.959 351.056 309.687 351.792C309.431 352.528 309.303 353.336 309.303 354.216C309.303 355.032 309.431 355.808 309.687 356.544C309.959 357.264 310.343 357.912 310.839 358.488C311.351 359.048 311.967 359.488 312.687 359.808C313.407 360.128 314.215 360.288 315.111 360.288ZM344.848 363.456C343.216 363.456 341.84 363.144 340.72 362.52C339.6 361.896 338.744 361.024 338.152 359.904C337.576 358.768 337.288 357.44 337.288 355.92V345.48H340.696V356.112C340.696 356.944 340.856 357.68 341.176 358.32C341.496 358.944 341.96 359.432 342.568 359.784C343.192 360.12 343.952 360.288 344.848 360.288C345.728 360.288 346.472 360.12 347.08 359.784C347.704 359.432 348.168 358.944 348.472 358.32C348.792 357.696 348.952 356.96 348.952 356.112V345.48H352.36V355.92C352.36 357.44 352.072 358.768 351.496 359.904C350.936 361.024 350.096 361.896 348.976 362.52C347.856 363.144 346.48 363.456 344.848 363.456ZM357.437 363V360.072L367.109 348.36L367.157 348.864L366.437 347.904L366.917 348.288H357.725V345.48H370.877V348.408L361.181 360.096L361.109 359.544L361.901 360.624L361.325 360.192H370.997V363H357.437ZM374.774 363L380.75 345.48H386.318L392.462 363H388.958L383.75 347.808L384.974 348.336H381.974L383.222 347.808L378.182 363H374.774ZM378.95 358.344L380.03 355.464H387.134L388.19 358.344H378.95ZM397.465 363V345.48H403.057L410.425 360.168H411.217L410.737 360.6V345.48H413.953V363H408.337L400.969 348.312H400.153L400.633 347.88V363H397.465Z" fill="#FEFBFF"/>
<path d="M81 335.324V372.673C81 374.491 81.9828 375.051 83.387 375.051H91.25C92.9349 375.051 93.637 374.491 93.637 372.673V320.356C93.637 319.097 96.1468 314.524 103.185 315.041C116.524 316.02 124.387 325.259 124.387 332.666V372.673C124.387 374.211 123.685 375.051 122 375.051H114.277C112.592 375.051 111.89 374.211 111.89 372.673V335.743C111.89 331.558 107.736 327.071 103.185 327.071H89.143C84.6498 327.071 81 332.246 81 335.324Z" stroke="#FEFBFF" stroke-width="2"/>
<path d="M177.72 366.666V329.317C177.72 327.499 176.737 326.939 175.333 326.939H167.47C165.785 326.939 165.083 327.499 165.083 329.317V381.633C165.083 382.892 162.573 387.466 155.535 386.949C142.196 385.97 134.333 376.731 134.333 369.324V329.317C134.333 327.778 135.035 326.939 136.72 326.939H144.442C146.127 326.939 146.829 327.778 146.829 329.317V366.246C146.829 370.431 150.983 374.919 155.535 374.919H169.577C174.07 374.919 177.72 369.743 177.72 366.666Z" stroke="#FEFBFF" stroke-width="2"/>
<rect x="80.0723" y="156.072" width="97.9347" height="69.3406" rx="6.07624" fill="url(#paint1_linear_12_752)" stroke="#211F21" stroke-width="2.14455"/>
<path d="M80.4297 178.59H109.739" stroke="#211F21" stroke-width="2" stroke-linecap="round"/>
<path d="M80.4297 200.75H109.096" stroke="#211F21" stroke-width="2" stroke-linecap="round"/>
<path d="M149.055 200.75H177.649" stroke="#211F21" stroke-width="2" stroke-linecap="round"/>
<path d="M148.626 179.305H177.649" stroke="#211F21" stroke-width="2" stroke-linecap="round"/>
<circle cx="129.04" cy="166.438" r="2.14455" fill="#211F21"/>
<path d="M144.766 170.727C142.024 161.386 136.903 156.787 128.682 156.787C118.674 156.787 115.846 164.408 109.739 178.233C113.649 187.384 113.69 192.314 109.739 200.75C116.145 219.132 120.891 224.793 129.04 224.698C139.762 224.698 142.814 215.61 148.698 200.75C145.604 192.375 145.273 187.753 148.151 179.377" stroke="#211F21" stroke-width="2" stroke-linecap="round"/>
<circle cx="573.75" cy="78.7505" r="45.7505" fill="#E71924"/>
<circle cx="629.508" cy="78.7505" r="45.7505" fill="#F99F19"/>
<path fill-rule="evenodd" clip-rule="evenodd" d="M601.629 114.848C612.497 106.484 619.5 93.345 619.5 78.5706C619.5 63.7962 612.497 50.6574 601.629 42.293C590.761 50.6574 583.758 63.7962 583.758 78.5706C583.758 93.345 590.761 106.484 601.629 114.848Z" fill="#F26520"/>
<defs>
<linearGradient id="paint0_linear_12_752" x1="0" y1="458" x2="722" y2="2.77055e-05" gradientUnits="userSpaceOnUse">
<stop stop-color="#82269E"/>
<stop offset="1" stop-color="#A950C4"/>
</linearGradient>
<linearGradient id="paint1_linear_12_752" x1="170.651" y1="164.877" x2="86.6514" y2="220.877" gradientUnits="userSpaceOnUse">
<stop stop-color="#F4F4F4"/>
<stop offset="1" stop-color="#D6D6D6"/>
</linearGradient>
</defs>
</svg>
